{
    "asset" : {
        "generator" : "Khronos glTF Blender I/O v1.1.46",
        "version" : "2.0"
    },
    "scene" : 0,
    "scenes" : [
        {
            "name" : "Scene",
            "nodes" : [
                0,
                1,
                2,
                3,
                4,
                5,
                6
            ]
        }
    ],
    "nodes" : [
        {
            "mesh" : 0,
            "name" : "silver_play_collider",
            "translation" : [
                0,
                0.9999996423721313,
                0
            ]
        },
        {
            "mesh" : 1,
            "name" : "Plane.086",
            "translation" : [
                2.5,
                1.578120470046997,
                -2.5
            ]
        },
        {
            "mesh" : 2,
            "name" : "Plane.102",
            "translation" : [
                -2.5905466079711914,
                1.578120470046997,
                2.5
            ]
        },
        {
            "mesh" : 3,
            "name" : "Plane.144",
            "translation" : [
                -2.5905466079711914,
                1.578120470046997,
                -2.5
            ]
        },
        {
            "mesh" : 4,
            "name" : "Plane.101",
            "translation" : [
                2.5,
                1.578120470046997,
                2.5
            ]
        },
        {
            "mesh" : 5,
            "name" : "Plane.032",
            "translation" : [
                0,
                1,
                0
            ]
        },
        {
            "mesh" : 6,
            "name" : "Plane.073",
            "scale" : [
                2.25,
                2.1818063259124756,
                2.25
            ],
            "translation" : [
                0,
                1.0365352630615234,
                0
            ]
        }
    ],
    "materials" : [
        {
            "doubleSided" : true,
            "emissiveFactor" : [
                0.035079434514045715,
                0.3828462064266205,
                0.39646244049072266
            ],
            "name" : "Material.017",
            "pbrMetallicRoughness" : {
                "baseColorFactor" : [
                    0.020635517314076424,
                    0.15468434989452362,
                    0.17141860723495483,
                    1
                ],
                "metallicFactor" : 0,
                "roughnessFactor" : 0.4939393997192383
            }
        },
        {
            "doubleSided" : true,
            "emissiveFactor" : [
                0,
                0,
                0
            ],
            "name" : "rock_4",
            "normalTexture" : {
                "index" : 0,
                "texCoord" : 0
            },
            "pbrMetallicRoughness" : {
                "baseColorFactor" : [
                    0.17695677280426025,
                    0.1845962405204773,
                    0.18639777600765228,
                    1
                ],
                "metallicFactor" : 0,
                "roughnessFactor" : 0.9212120771408081
            }
        },
        {
            "alphaMode" : "BLEND",
            "doubleSided" : true,
            "emissiveFactor" : [
                1,
                1,
                1
            ],
            "emissiveTexture" : {
                "index" : 1,
                "texCoord" : 0
            },
            "name" : "glow_1",
            "pbrMetallicRoughness" : {
                "baseColorTexture" : {
                    "index" : 2,
                    "texCoord" : 0
                },
                "metallicFactor" : 0,
                "roughnessFactor" : 0.4939393997192383
            }
        },
        {
            "doubleSided" : true,
            "emissiveFactor" : [
                0,
                0,
                0
            ],
            "name" : "Material.026",
            "normalTexture" : {
                "index" : 3,
                "texCoord" : 0
            },
            "pbrMetallicRoughness" : {
                "baseColorFactor" : [
                    0.3197486400604248,
                    0.2718737721443176,
                    0.2291594296693802,
                    1
                ],
                "metallicFactor" : 0,
                "roughnessFactor" : 1
            }
        }
    ],
    "meshes" : [
        {
            "name" : "Plane.308",
            "primitives" : [
                {
                    "attributes" : {
                        "POSITION" : 0,
                        "NORMAL" : 1,
                        "TEXCOORD_0" : 2
                    },
                    "indices" : 3
                }
            ]
        },
        {
            "name" : "Plane.183",
            "primitives" : [
                {
                    "attributes" : {
                        "POSITION" : 4,
                        "NORMAL" : 5,
                        "TEXCOORD_0" : 6
                    },
                    "indices" : 7,
                    "material" : 0
                }
            ]
        },
        {
            "name" : "Plane.185",
            "primitives" : [
                {
                    "attributes" : {
                        "POSITION" : 8,
                        "NORMAL" : 9,
                        "TEXCOORD_0" : 10
                    },
                    "indices" : 7,
                    "material" : 0
                }
            ]
        },
        {
            "name" : "Plane.186",
            "primitives" : [
                {
                    "attributes" : {
                        "POSITION" : 11,
                        "NORMAL" : 12,
                        "TEXCOORD_0" : 13
                    },
                    "indices" : 7,
                    "material" : 0
                }
            ]
        },
        {
            "name" : "Plane.184",
            "primitives" : [
                {
                    "attributes" : {
                        "POSITION" : 14,
                        "NORMAL" : 15,
                        "TEXCOORD_0" : 16
                    },
                    "indices" : 7,
                    "material" : 0
                }
            ]
        },
        {
            "name" : "Plane.358",
            "primitives" : [
                {
                    "attributes" : {
                        "POSITION" : 17,
                        "NORMAL" : 18,
                        "TEXCOORD_0" : 19
                    },
                    "indices" : 20,
                    "material" : 1
                },
                {
                    "attributes" : {
                        "POSITION" : 21,
                        "NORMAL" : 22,
                        "TEXCOORD_0" : 23
                    },
                    "indices" : 24,
                    "material" : 2
                },
                {
                    "attributes" : {
                        "POSITION" : 25,
                        "NORMAL" : 26,
                        "TEXCOORD_0" : 27
                    },
                    "indices" : 28,
                    "material" : 3
                }
            ]
        },
        {
            "name" : "Plane.203",
            "primitives" : [
                {
                    "attributes" : {
                        "POSITION" : 29,
                        "NORMAL" : 30,
                        "TEXCOORD_0" : 31
                    },
                    "indices" : 32,
                    "material" : 0
                }
            ]
        }
    ],
    "textures" : [
        {
            "source" : 0
        },
        {
            "source" : 1
        },
        {
            "source" : 1
        },
        {
            "source" : 2
        }
    ],
    "images" : [
        {
            "bufferView" : 21,
            "mimeType" : "image/jpeg",
            "name" : "concrete_31_normal"
        },
        {
            "bufferView" : 26,
            "mimeType" : "image/png",
            "name" : "Genesis_TX"
        },
        {
            "bufferView" : 31,
            "mimeType" : "image/jpeg",
            "name" : "concrete_30_normal"
        }
    ],
    "accessors" : [
        {
            "bufferView" : 0,
            "componentType" : 5126,
            "count" : 56,
            "max" : [
                3,
                0.9999999403953552,
                3
            ],
            "min" : [
                -3,
                -1,
                -3
            ],
            "type" : "VEC3"
        },
        {
            "bufferView" : 1,
            "componentType" : 5126,
            "count" : 56,
            "type" : "VEC3"
        },
        {
            "bufferView" : 2,
            "componentType" : 5126,
            "count" : 56,
            "type" : "VEC2"
        },
        {
            "bufferView" : 3,
            "componentType" : 5123,
            "count" : 84,
            "type" : "SCALAR"
        },
        {
            "bufferView" : 4,
            "componentType" : 5126,
            "count" : 24,
            "max" : [
                0.40945327281951904,
                1.460870623588562,
                0.40945327281951904
            ],
            "min" : [
                -0.40945327281951904,
                0,
                -0.40945327281951904
            ],
            "type" : "VEC3"
        },
        {
            "bufferView" : 5,
            "componentType" : 5126,
            "count" : 24,
            "type" : "VEC3"
        },
        {
            "bufferView" : 6,
            "componentType" : 5126,
            "count" : 24,
            "type" : "VEC2"
        },
        {
            "bufferView" : 7,
            "componentType" : 5123,
            "count" : 36,
            "type" : "SCALAR"
        },
        {
            "bufferView" : 8,
            "componentType" : 5126,
            "count" : 24,
            "max" : [
                0.40945327281951904,
                1.460870623588562,
                0.40945327281951904
            ],
            "min" : [
                -0.40945327281951904,
                0,
                -0.40945327281951904
            ],
            "type" : "VEC3"
        },
        {
            "bufferView" : 9,
            "componentType" : 5126,
            "count" : 24,
            "type" : "VEC3"
        },
        {
            "bufferView" : 10,
            "componentType" : 5126,
            "count" : 24,
            "type" : "VEC2"
        },
        {
            "bufferView" : 11,
            "componentType" : 5126,
            "count" : 24,
            "max" : [
                0.40945327281951904,
                1.460870623588562,
                0.40945327281951904
            ],
            "min" : [
                -0.40945327281951904,
                0,
                -0.40945327281951904
            ],
            "type" : "VEC3"
        },
        {
            "bufferView" : 12,
            "componentType" : 5126,
            "count" : 24,
            "type" : "VEC3"
        },
        {
            "bufferView" : 13,
            "componentType" : 5126,
            "count" : 24,
            "type" : "VEC2"
        },
        {
            "bufferView" : 14,
            "componentType" : 5126,
            "count" : 24,
            "max" : [
                0.40945327281951904,
                1.460870623588562,
                0.40945327281951904
            ],
            "min" : [
                -0.40945327281951904,
                0,
                -0.40945327281951904
            ],
            "type" : "VEC3"
        },
        {
            "bufferView" : 15,
            "componentType" : 5126,
            "count" : 24,
            "type" : "VEC3"
        },
        {
            "bufferView" : 16,
            "componentType" : 5126,
            "count" : 24,
            "type" : "VEC2"
        },
        {
            "bufferView" : 17,
            "componentType" : 5126,
            "count" : 72,
            "max" : [
                3,
                0,
                3
            ],
            "min" : [
                -3,
                -1,
                -3
            ],
            "type" : "VEC3"
        },
        {
            "bufferView" : 18,
            "componentType" : 5126,
            "count" : 72,
            "type" : "VEC3"
        },
        {
            "bufferView" : 19,
            "componentType" : 5126,
            "count" : 72,
            "type" : "VEC2"
        },
        {
            "bufferView" : 20,
            "componentType" : 5123,
            "count" : 138,
            "type" : "SCALAR"
        },
        {
            "bufferView" : 22,
            "componentType" : 5126,
            "count" : 10,
            "max" : [
                1.5705972909927368,
                0.8508220911026001,
                1.5705972909927368
            ],
            "min" : [
                -1.5705972909927368,
                0.8508220911026001,
                -1.5705972909927368
            ],
            "type" : "VEC3"
        },
        {
            "bufferView" : 23,
            "componentType" : 5126,
            "count" : 10,
            "type" : "VEC3"
        },
        {
            "bufferView" : 24,
            "componentType" : 5126,
            "count" : 10,
            "type" : "VEC2"
        },
        {
            "bufferView" : 25,
            "componentType" : 5123,
            "count" : 24,
            "type" : "SCALAR"
        },
        {
            "bufferView" : 27,
            "componentType" : 5126,
            "count" : 133,
            "max" : [
                2,
                1,
                2
            ],
            "min" : [
                -2,
                0,
                -2
            ],
            "type" : "VEC3"
        },
        {
            "bufferView" : 28,
            "componentType" : 5126,
            "count" : 133,
            "type" : "VEC3"
        },
        {
            "bufferView" : 29,
            "componentType" : 5126,
            "count" : 133,
            "type" : "VEC2"
        },
        {
            "bufferView" : 30,
            "componentType" : 5123,
            "count" : 264,
            "type" : "SCALAR"
        },
        {
            "bufferView" : 32,
            "componentType" : 5126,
            "count" : 80,
            "max" : [
                1,
                0,
                1
            ],
            "min" : [
                -1,
                -0.12563395500183105,
                -1
            ],
            "type" : "VEC3"
        },
        {
            "bufferView" : 33,
            "componentType" : 5126,
            "count" : 80,
            "type" : "VEC3"
        },
        {
            "bufferView" : 34,
            "componentType" : 5126,
            "count" : 80,
            "type" : "VEC2"
        },
        {
            "bufferView" : 35,
            "componentType" : 5123,
            "count" : 120,
            "type" : "SCALAR"
        }
    ],
    "bufferViews" : [
        {
            "buffer" : 0,
            "byteLength" : 672,
            "byteOffset" : 0
        },
        {
            "buffer" : 0,
            "byteLength" : 672,
            "byteOffset" : 672
        },
        {
            "buffer" : 0,
            "byteLength" : 448,
            "byteOffset" : 1344
        },
        {
            "buffer" : 0,
            "byteLength" : 168,
            "byteOffset" : 1792
        },
        {
            "buffer" : 0,
            "byteLength" : 288,
            "byteOffset" : 1960
        },
        {
            "buffer" : 0,
            "byteLength" : 288,
            "byteOffset" : 2248
        },
        {
            "buffer" : 0,
            "byteLength" : 192,
            "byteOffset" : 2536
        },
        {
            "buffer" : 0,
            "byteLength" : 72,
            "byteOffset" : 2728
        },
        {
            "buffer" : 0,
            "byteLength" : 288,
            "byteOffset" : 2800
        },
        {
            "buffer" : 0,
            "byteLength" : 288,
            "byteOffset" : 3088
        },
        {
            "buffer" : 0,
            "byteLength" : 192,
            "byteOffset" : 3376
        },
        {
            "buffer" : 0,
            "byteLength" : 288,
            "byteOffset" : 3568
        },
        {
            "buffer" : 0,
            "byteLength" : 288,
            "byteOffset" : 3856
        },
        {
            "buffer" : 0,
            "byteLength" : 192,
            "byteOffset" : 4144
        },
        {
            "buffer" : 0,
            "byteLength" : 288,
            "byteOffset" : 4336
        },
        {
            "buffer" : 0,
            "byteLength" : 288,
            "byteOffset" : 4624
        },
        {
            "buffer" : 0,
            "byteLength" : 192,
            "byteOffset" : 4912
        },
        {
            "buffer" : 0,
            "byteLength" : 864,
            "byteOffset" : 5104
        },
        {
            "buffer" : 0,
            "byteLength" : 864,
            "byteOffset" : 5968
        },
        {
            "buffer" : 0,
            "byteLength" : 576,
            "byteOffset" : 6832
        },
        {
            "buffer" : 0,
            "byteLength" : 276,
            "byteOffset" : 7408
        },
        {
            "buffer" : 0,
            "byteLength" : 180599,
            "byteOffset" : 7684
        },
        {
            "buffer" : 0,
            "byteLength" : 120,
            "byteOffset" : 188284
        },
        {
            "buffer" : 0,
            "byteLength" : 120,
            "byteOffset" : 188404
        },
        {
            "buffer" : 0,
            "byteLength" : 80,
            "byteOffset" : 188524
        },
        {
            "buffer" : 0,
            "byteLength" : 48,
            "byteOffset" : 188604
        },
        {
            "buffer" : 0,
            "byteLength" : 19841,
            "byteOffset" : 188652
        },
        {
            "buffer" : 0,
            "byteLength" : 1596,
            "byteOffset" : 208496
        },
        {
            "buffer" : 0,
            "byteLength" : 1596,
            "byteOffset" : 210092
        },
        {
            "buffer" : 0,
            "byteLength" : 1064,
            "byteOffset" : 211688
        },
        {
            "buffer" : 0,
            "byteLength" : 528,
            "byteOffset" : 212752
        },
        {
            "buffer" : 0,
            "byteLength" : 180883,
            "byteOffset" : 213280
        },
        {
            "buffer" : 0,
            "byteLength" : 960,
            "byteOffset" : 394164
        },
        {
            "buffer" : 0,
            "byteLength" : 960,
            "byteOffset" : 395124
        },
        {
            "buffer" : 0,
            "byteLength" : 640,
            "byteOffset" : 396084
        },
        {
            "buffer" : 0,
            "byteLength" : 240,
            "byteOffset" : 396724
        }
    ],
    "buffers" : [
        {
            "byteLength" : 396964,
            "uri" : "data:application/octet-stream;base64,"
        }
    ]
}
