{
    "asset" : {
        "generator" : "Khronos glTF Blender I/O v1.1.46",
        "version" : "2.0"
    },
    "scene" : 0,
    "scenes" : [
        {
            "name" : "Scene",
            "nodes" : [
                0
            ]
        }
    ],
    "nodes" : [
        {
            "mesh" : 0,
            "name" : "Plane.016",
            "scale" : [
                0.75,
                1.197947382926941,
                0.75
            ],
            "translation" : [
                0,
                0.3174920082092285,
                0
            ]
        }
    ],
    "materials" : [
        {
            "doubleSided" : true,
            "emissiveFactor" : [
                0,
                0,
                0
            ],
            "name" : "Material.012",
            "pbrMetallicRoughness" : {
                "baseColorFactor" : [
                    0.19216182827949524,
                    0.15706169605255127,
                    0.13207308948040009,
                    1
                ],
                "metallicFactor" : 0,
                "roughnessFactor" : 0.4939393997192383
            }
        },
        {
            "doubleSided" : true,
            "emissiveFactor" : [
                0.847058892250061,
                0.1764705926179886,
                0.11372549831867218
            ],
            "name" : "Material.015",
            "pbrMetallicRoughness" : {
                "baseColorFactor" : [
                    0.8482955694198608,
                    0.1772424876689911,
                    0.11354385316371918,
                    1
                ],
                "metallicFactor" : 0,
                "roughnessFactor" : 0.7848484516143799
            }
        }
    ],
    "meshes" : [
        {
            "name" : "Plane.076",
            "primitives" : [
                {
                    "attributes" : {
                        "POSITION" : 0,
                        "NORMAL" : 1,
                        "TEXCOORD_0" : 2
                    },
                    "indices" : 3,
                    "material" : 0
                },
                {
                    "attributes" : {
                        "POSITION" : 4,
                        "NORMAL" : 5,
                        "TEXCOORD_0" : 6
                    },
                    "indices" : 7,
                    "material" : 1
                }
            ]
        }
    ],
    "accessors" : [
        {
            "bufferView" : 0,
            "componentType" : 5126,
            "count" : 250,
            "max" : [
                1,
                1.460832118988037,
                1
            ],
            "min" : [
                -1,
                0.20869030058383942,
                -1
            ],
            "type" : "VEC3"
        },
        {
            "bufferView" : 1,
            "componentType" : 5126,
            "count" : 250,
            "type" : "VEC3"
        },
        {
            "bufferView" : 2,
            "componentType" : 5126,
            "count" : 250,
            "type" : "VEC2"
        },
        {
            "bufferView" : 3,
            "componentType" : 5123,
            "count" : 516,
            "type" : "SCALAR"
        },
        {
            "bufferView" : 4,
            "componentType" : 5126,
            "count" : 32,
            "max" : [
                0.3333333134651184,
                1.3847548961639404,
                0.8784846067428589
            ],
            "min" : [
                -0.3333333134651184,
                0.20869030058383942,
                -0.8784840703010559
            ],
            "type" : "VEC3"
        },
        {
            "bufferView" : 5,
            "componentType" : 5126,
            "count" : 32,
            "type" : "VEC3"
        },
        {
            "bufferView" : 6,
            "componentType" : 5126,
            "count" : 32,
            "type" : "VEC2"
        },
        {
            "bufferView" : 7,
            "componentType" : 5123,
            "count" : 48,
            "type" : "SCALAR"
        }
    ],
    "bufferViews" : [
        {
            "buffer" : 0,
            "byteLength" : 3000,
            "byteOffset" : 0
        },
        {
            "buffer" : 0,
            "byteLength" : 3000,
            "byteOffset" : 3000
        },
        {
            "buffer" : 0,
            "byteLength" : 2000,
            "byteOffset" : 6000
        },
        {
            "buffer" : 0,
            "byteLength" : 1032,
            "byteOffset" : 8000
        },
        {
            "buffer" : 0,
            "byteLength" : 384,
            "byteOffset" : 9032
        },
        {
            "buffer" : 0,
            "byteLength" : 384,
            "byteOffset" : 9416
        },
        {
            "buffer" : 0,
            "byteLength" : 256,
            "byteOffset" : 9800
        },
        {
            "buffer" : 0,
            "byteLength" : 96,
            "byteOffset" : 10056
        }
    ],
    "buffers" : [
        {
            "byteLength" : 10152,
            "uri" : "data:application/octet-stream;base64,"
        }
    ]
}
