{
    "asset" : {
        "generator" : "Khronos glTF Blender I/O v1.1.46",
        "version" : "2.0"
    },
    "scene" : 0,
    "scenes" : [
        {
            "name" : "Scene",
            "nodes" : [
                0
            ]
        }
    ],
    "nodes" : [
        {
            "mesh" : 0,
            "name" : "Plane.042",
            "scale" : [
                0.7398366332054138,
                0.8729155659675598,
                0.7398366332054138
            ],
            "translation" : [
                0,
                0.5,
                0
            ]
        }
    ],
    "materials" : [
        {
            "doubleSided" : true,
            "emissiveFactor" : [
                0,
                0,
                0
            ],
            "name" : "Material.012",
            "pbrMetallicRoughness" : {
                "baseColorFactor" : [
                    0.19216182827949524,
                    0.15706169605255127,
                    0.13207308948040009,
                    1
                ],
                "metallicFactor" : 0,
                "roughnessFactor" : 0.4939393997192383
            }
        }
    ],
    "meshes" : [
        {
            "name" : "Plane.052",
            "primitives" : [
                {
                    "attributes" : {
                        "POSITION" : 0,
                        "NORMAL" : 1,
                        "TEXCOORD_0" : 2
                    },
                    "indices" : 3,
                    "material" : 0
                }
            ]
        }
    ],
    "accessors" : [
        {
            "bufferView" : 0,
            "componentType" : 5126,
            "count" : 275,
            "max" : [
                1.6118736267089844,
                2.6798882484436035,
                1.6118736267089844
            ],
            "min" : [
                -1.6118736267089844,
                -0.05238795280456543,
                -1.6118736267089844
            ],
            "type" : "VEC3"
        },
        {
            "bufferView" : 1,
            "componentType" : 5126,
            "count" : 275,
            "type" : "VEC3"
        },
        {
            "bufferView" : 2,
            "componentType" : 5126,
            "count" : 275,
            "type" : "VEC2"
        },
        {
            "bufferView" : 3,
            "componentType" : 5123,
            "count" : 420,
            "type" : "SCALAR"
        }
    ],
    "bufferViews" : [
        {
            "buffer" : 0,
            "byteLength" : 3300,
            "byteOffset" : 0
        },
        {
            "buffer" : 0,
            "byteLength" : 3300,
            "byteOffset" : 3300
        },
        {
            "buffer" : 0,
            "byteLength" : 2200,
            "byteOffset" : 6600
        },
        {
            "buffer" : 0,
            "byteLength" : 840,
            "byteOffset" : 8800
        }
    ],
    "buffers" : [
        {
            "byteLength" : 9640,
            "uri" : "data:application/octet-stream;base64,"
        }
    ]
}
