{
    "asset" : {
        "generator" : "Khronos glTF Blender I/O v1.1.46",
        "version" : "2.0"
    },
    "scene" : 0,
    "scenes" : [
        {
            "name" : "Scene",
            "nodes" : [
                0,
                1
            ]
        }
    ],
    "nodes" : [
        {
            "mesh" : 0,
            "name" : "Circle.017",
            "scale" : [
                2.8464019298553467,
                2.451028347015381,
                2.8464019298553467
            ],
            "translation" : [
                0,
                0.6789727807044983,
                0
            ]
        },
        {
            "mesh" : 1,
            "name" : "red_join_area_collider.001",
            "scale" : [
                3.408764600753784,
                3.408764600753784,
                3.408764600753784
            ]
        }
    ],
    "materials" : [
        {
            "doubleSided" : true,
            "emissiveFactor" : [
                0,
                0,
                0
            ],
            "name" : "Material.009",
            "pbrMetallicRoughness" : {
                "baseColorFactor" : [
                    0.7847166061401367,
                    0.634486198425293,
                    0.5281853675842285,
                    1
                ],
                "metallicFactor" : 0,
                "roughnessFactor" : 0.4939393997192383
            }
        },
        {
            "doubleSided" : true,
            "emissiveFactor" : [
                0.035079434514045715,
                0.3828462064266205,
                0.39646244049072266
            ],
            "name" : "Material.008",
            "pbrMetallicRoughness" : {
                "baseColorFactor" : [
                    0.020635517314076424,
                    0.15468434989452362,
                    0.17141860723495483,
                    1
                ],
                "metallicFactor" : 0,
                "roughnessFactor" : 0.4939393997192383
            }
        }
    ],
    "meshes" : [
        {
            "name" : "Circle.021",
            "primitives" : [
                {
                    "attributes" : {
                        "POSITION" : 0,
                        "NORMAL" : 1,
                        "TEXCOORD_0" : 2
                    },
                    "indices" : 3,
                    "material" : 0
                },
                {
                    "attributes" : {
                        "POSITION" : 4,
                        "NORMAL" : 5,
                        "TEXCOORD_0" : 6
                    },
                    "indices" : 7,
                    "material" : 1
                }
            ]
        },
        {
            "name" : "Circle.022",
            "primitives" : [
                {
                    "attributes" : {
                        "POSITION" : 8,
                        "NORMAL" : 9,
                        "TEXCOORD_0" : 10
                    },
                    "indices" : 11
                }
            ]
        }
    ],
    "accessors" : [
        {
            "bufferView" : 0,
            "componentType" : 5126,
            "count" : 294,
            "max" : [
                1.2000000476837158,
                0.14893406629562378,
                1.2000001668930054
            ],
            "min" : [
                -1.2000001668930054,
                -0.36923739314079285,
                -1.2000001668930054
            ],
            "type" : "VEC3"
        },
        {
            "bufferView" : 1,
            "componentType" : 5126,
            "count" : 294,
            "type" : "VEC3"
        },
        {
            "bufferView" : 2,
            "componentType" : 5126,
            "count" : 294,
            "type" : "VEC2"
        },
        {
            "bufferView" : 3,
            "componentType" : 5123,
            "count" : 522,
            "type" : "SCALAR"
        },
        {
            "bufferView" : 4,
            "componentType" : 5126,
            "count" : 16,
            "max" : [
                0.8441721200942993,
                0.10749703645706177,
                0.8441721200942993
            ],
            "min" : [
                -0.8441721200942993,
                0.10749703645706177,
                -0.8441721200942993
            ],
            "type" : "VEC3"
        },
        {
            "bufferView" : 5,
            "componentType" : 5126,
            "count" : 16,
            "type" : "VEC3"
        },
        {
            "bufferView" : 6,
            "componentType" : 5126,
            "count" : 16,
            "type" : "VEC2"
        },
        {
            "bufferView" : 7,
            "componentType" : 5123,
            "count" : 48,
            "type" : "SCALAR"
        },
        {
            "bufferView" : 8,
            "componentType" : 5126,
            "count" : 48,
            "max" : [
                1,
                0.26089388132095337,
                1
            ],
            "min" : [
                -1,
                0,
                -1
            ],
            "type" : "VEC3"
        },
        {
            "bufferView" : 9,
            "componentType" : 5126,
            "count" : 48,
            "type" : "VEC3"
        },
        {
            "bufferView" : 10,
            "componentType" : 5126,
            "count" : 48,
            "type" : "VEC2"
        },
        {
            "bufferView" : 11,
            "componentType" : 5123,
            "count" : 84,
            "type" : "SCALAR"
        }
    ],
    "bufferViews" : [
        {
            "buffer" : 0,
            "byteLength" : 3528,
            "byteOffset" : 0
        },
        {
            "buffer" : 0,
            "byteLength" : 3528,
            "byteOffset" : 3528
        },
        {
            "buffer" : 0,
            "byteLength" : 2352,
            "byteOffset" : 7056
        },
        {
            "buffer" : 0,
            "byteLength" : 1044,
            "byteOffset" : 9408
        },
        {
            "buffer" : 0,
            "byteLength" : 192,
            "byteOffset" : 10452
        },
        {
            "buffer" : 0,
            "byteLength" : 192,
            "byteOffset" : 10644
        },
        {
            "buffer" : 0,
            "byteLength" : 128,
            "byteOffset" : 10836
        },
        {
            "buffer" : 0,
            "byteLength" : 96,
            "byteOffset" : 10964
        },
        {
            "buffer" : 0,
            "byteLength" : 576,
            "byteOffset" : 11060
        },
        {
            "buffer" : 0,
            "byteLength" : 576,
            "byteOffset" : 11636
        },
        {
            "buffer" : 0,
            "byteLength" : 384,
            "byteOffset" : 12212
        },
        {
            "buffer" : 0,
            "byteLength" : 168,
            "byteOffset" : 12596
        }
    ],
    "buffers" : [
        {
            "byteLength" : 12764,
            "uri" : "data:application/octet-stream;base64,"
        }
    ]
}
