{
    "asset" : {
        "generator" : "Khronos glTF Blender I/O v1.1.46",
        "version" : "2.0"
    },
    "scene" : 0,
    "scenes" : [
        {
            "name" : "Scene",
            "nodes" : [
                0
            ]
        }
    ],
    "nodes" : [
        {
            "mesh" : 0,
            "name" : "Plane.018",
            "rotation" : [
                0.6532815098762512,
                -0.27059805393218994,
                0.27059805393218994,
                0.6532814502716064
            ],
            "scale" : [
                0.8999998569488525,
                1.190272331237793,
                1.2000000476837158
            ],
            "translation" : [
                0,
                0.5,
                0
            ]
        }
    ],
    "materials" : [
        {
            "doubleSided" : true,
            "emissiveFactor" : [
                0,
                0,
                0
            ],
            "name" : "Material.009",
            "pbrMetallicRoughness" : {
                "baseColorFactor" : [
                    0.7847166061401367,
                    0.634486198425293,
                    0.5281853675842285,
                    1
                ],
                "metallicFactor" : 0,
                "roughnessFactor" : 0.4939393997192383
            }
        },
        {
            "alphaMode" : "BLEND",
            "doubleSided" : true,
            "emissiveFactor" : [
                0,
                0,
                0
            ],
            "name" : "Material.006",
            "pbrMetallicRoughness" : {
                "baseColorFactor" : [
                    0.4058961868286133,
                    0.4977625906467438,
                    0.42784109711647034,
                    0.800000011920929
                ],
                "metallicFactor" : 0.6515151262283325,
                "roughnessFactor" : 0.24848484992980957
            }
        }
    ],
    "meshes" : [
        {
            "name" : "Plane.014",
            "primitives" : [
                {
                    "attributes" : {
                        "POSITION" : 0,
                        "NORMAL" : 1,
                        "TEXCOORD_0" : 2
                    },
                    "indices" : 3,
                    "material" : 0
                },
                {
                    "attributes" : {
                        "POSITION" : 4,
                        "NORMAL" : 5,
                        "TEXCOORD_0" : 6
                    },
                    "indices" : 7,
                    "material" : 1
                }
            ]
        }
    ],
    "accessors" : [
        {
            "bufferView" : 0,
            "componentType" : 5126,
            "count" : 152,
            "max" : [
                1,
                0.11500000208616257,
                -7.996603797478374e-17
            ],
            "min" : [
                -1,
                -0.11150000244379044,
                -2
            ],
            "type" : "VEC3"
        },
        {
            "bufferView" : 1,
            "componentType" : 5126,
            "count" : 152,
            "type" : "VEC3"
        },
        {
            "bufferView" : 2,
            "componentType" : 5126,
            "count" : 152,
            "type" : "VEC2"
        },
        {
            "bufferView" : 3,
            "componentType" : 5123,
            "count" : 216,
            "type" : "SCALAR"
        },
        {
            "bufferView" : 4,
            "componentType" : 5126,
            "count" : 8,
            "max" : [
                0.7218211889266968,
                0.05000000074505806,
                -0.2781788110733032
            ],
            "min" : [
                -0.7218211889266968,
                -0.05000000074505806,
                -1.7218211889266968
            ],
            "type" : "VEC3"
        },
        {
            "bufferView" : 5,
            "componentType" : 5126,
            "count" : 8,
            "type" : "VEC3"
        },
        {
            "bufferView" : 6,
            "componentType" : 5126,
            "count" : 8,
            "type" : "VEC2"
        },
        {
            "bufferView" : 7,
            "componentType" : 5123,
            "count" : 12,
            "type" : "SCALAR"
        }
    ],
    "bufferViews" : [
        {
            "buffer" : 0,
            "byteLength" : 1824,
            "byteOffset" : 0
        },
        {
            "buffer" : 0,
            "byteLength" : 1824,
            "byteOffset" : 1824
        },
        {
            "buffer" : 0,
            "byteLength" : 1216,
            "byteOffset" : 3648
        },
        {
            "buffer" : 0,
            "byteLength" : 432,
            "byteOffset" : 4864
        },
        {
            "buffer" : 0,
            "byteLength" : 96,
            "byteOffset" : 5296
        },
        {
            "buffer" : 0,
            "byteLength" : 96,
            "byteOffset" : 5392
        },
        {
            "buffer" : 0,
            "byteLength" : 64,
            "byteOffset" : 5488
        },
        {
            "buffer" : 0,
            "byteLength" : 24,
            "byteOffset" : 5552
        }
    ],
    "buffers" : [
        {
            "byteLength" : 5576,
            "uri" : "data:application/octet-stream;base64,"
        }
    ]
}
