{
    "asset" : {
        "generator" : "Khronos glTF Blender I/O v1.1.46",
        "version" : "2.0"
    },
    "scene" : 0,
    "scenes" : [
        {
            "name" : "Scene",
            "nodes" : [
                0,
                1
            ]
        }
    ],
    "nodes" : [
        {
            "mesh" : 0,
            "name" : "red_sphinx"
        },
        {
            "mesh" : 1,
            "name" : "red1_collider"
        }
    ],
    "materials" : [
        {
            "doubleSided" : true,
            "emissiveFactor" : [
                0,
                0,
                0
            ],
            "name" : "basic",
            "pbrMetallicRoughness" : {
                "baseColorTexture" : {
                    "index" : 0,
                    "texCoord" : 0
                },
                "metallicFactor" : 0,
                "roughnessFactor" : 0.7227272987365723
            }
        },
        {
            "doubleSided" : true,
          "emissiveFactor": [
            0.6,
            0.6,
            0.6
          ],
            "emissiveTexture" : {
                "index" : 1,
                "texCoord" : 0
            },
            "name" : "shine",
            "pbrMetallicRoughness" : {
                "baseColorTexture" : {
                    "index" : 2,
                    "texCoord" : 0
                },
                "metallicFactor" : 0,
                "roughnessFactor" : 0.7227272987365723
            }
        }
    ],
    "meshes" : [
        {
            "name" : "Sphere.007",
            "primitives" : [
                {
                    "attributes" : {
                        "POSITION" : 0,
                        "NORMAL" : 1,
                        "TEXCOORD_0" : 2
                    },
                    "indices" : 3,
                    "material" : 0
                },
                {
                    "attributes" : {
                        "POSITION" : 4,
                        "NORMAL" : 5,
                        "TEXCOORD_0" : 6
                    },
                    "indices" : 7,
                    "material" : 1
                }
            ]
        },
        {
            "name" : "Plane.035",
            "primitives" : [
                {
                    "attributes" : {
                        "POSITION" : 8,
                        "NORMAL" : 9,
                        "TEXCOORD_0" : 10
                    },
                    "indices" : 11
                }
            ]
        }
    ],
    "textures" : [
        {
            "source" : 0
        },
        {
            "source" : 0
        },
        {
            "source" : 0
        }
    ],
    "images" : [
        {
            "bufferView" : 4,
            "mimeType" : "image/png",
            "name" : "Genesis_TX"
        }
    ],
    "accessors" : [
        {
            "bufferView" : 0,
            "componentType" : 5126,
            "count" : 940,
            "max" : [
                0.906121015548706,
                2.165414810180664,
                0.9624780416488647
            ],
            "min" : [
                -0.9061216115951538,
                0.4146007299423218,
                -0.9365644454956055
            ],
            "type" : "VEC3"
        },
        {
            "bufferView" : 1,
            "componentType" : 5126,
            "count" : 940,
            "type" : "VEC3"
        },
        {
            "bufferView" : 2,
            "componentType" : 5126,
            "count" : 940,
            "type" : "VEC2"
        },
        {
            "bufferView" : 3,
            "componentType" : 5123,
            "count" : 1470,
            "type" : "SCALAR"
        },
        {
            "bufferView" : 5,
            "componentType" : 5126,
            "count" : 160,
            "max" : [
                0.906121015548706,
                2.1001386642456055,
                0.9597830176353455
            ],
            "min" : [
                -0.9061216115951538,
                0.36337411403656006,
                -0.9365644454956055
            ],
            "type" : "VEC3"
        },
        {
            "bufferView" : 6,
            "componentType" : 5126,
            "count" : 160,
            "type" : "VEC3"
        },
        {
            "bufferView" : 7,
            "componentType" : 5126,
            "count" : 160,
            "type" : "VEC2"
        },
        {
            "bufferView" : 8,
            "componentType" : 5123,
            "count" : 234,
            "type" : "SCALAR"
        },
        {
            "bufferView" : 9,
            "componentType" : 5126,
            "count" : 24,
            "max" : [
                1,
                2.2006287574768066,
                1
            ],
            "min" : [
                -1,
                0,
                -1
            ],
            "type" : "VEC3"
        },
        {
            "bufferView" : 10,
            "componentType" : 5126,
            "count" : 24,
            "type" : "VEC3"
        },
        {
            "bufferView" : 11,
            "componentType" : 5126,
            "count" : 24,
            "type" : "VEC2"
        },
        {
            "bufferView" : 12,
            "componentType" : 5123,
            "count" : 36,
            "type" : "SCALAR"
        }
    ],
    "bufferViews" : [
        {
            "buffer" : 0,
            "byteLength" : 11280,
            "byteOffset" : 0
        },
        {
            "buffer" : 0,
            "byteLength" : 11280,
            "byteOffset" : 11280
        },
        {
            "buffer" : 0,
            "byteLength" : 7520,
            "byteOffset" : 22560
        },
        {
            "buffer" : 0,
            "byteLength" : 2940,
            "byteOffset" : 30080
        },
        {
            "buffer" : 0,
            "byteLength" : 19841,
            "byteOffset" : 33020
        },
        {
            "buffer" : 0,
            "byteLength" : 1920,
            "byteOffset" : 52864
        },
        {
            "buffer" : 0,
            "byteLength" : 1920,
            "byteOffset" : 54784
        },
        {
            "buffer" : 0,
            "byteLength" : 1280,
            "byteOffset" : 56704
        },
        {
            "buffer" : 0,
            "byteLength" : 468,
            "byteOffset" : 57984
        },
        {
            "buffer" : 0,
            "byteLength" : 288,
            "byteOffset" : 58452
        },
        {
            "buffer" : 0,
            "byteLength" : 288,
            "byteOffset" : 58740
        },
        {
            "buffer" : 0,
            "byteLength" : 192,
            "byteOffset" : 59028
        },
        {
            "buffer" : 0,
            "byteLength" : 72,
            "byteOffset" : 59220
        }
    ],
    "buffers" : [
        {
            "byteLength" : 59292,
            "uri" : "data:application/octet-stream;base64,"
        }
    ]
}
