{
    "asset" : {
        "generator" : "Khronos glTF Blender I/O v1.1.46",
        "version" : "2.0"
    },
    "scene" : 0,
    "scenes" : [
        {
            "name" : "Scene",
            "nodes" : [
                1
            ]
        }
    ],
    "nodes" : [
        {
            "mesh" : 0,
            "name" : "Plane.026",
            "scale" : [
                0.9151681661605835,
                0.9151681661605835,
                0.9151681661605835
            ]
        },
        {
            "children" : [
                0
            ],
            "mesh" : 1,
            "name" : "Plane.030",
            "rotation" : [
                0.7071067690849304,
                0,
                0,
                0.7071067690849304
            ],
            "scale" : [
                0.5597866177558899,
                0.5597866177558899,
                0.5597866177558899
            ]
        }
    ],
    "materials" : [
        {
            "doubleSided" : true,
            "emissiveFactor" : [
                0,
                0,
                0
            ],
            "name" : "Material.030",
            "pbrMetallicRoughness" : {
                "baseColorTexture" : {
                    "index" : 0,
                    "texCoord" : 0
                },
                "metallicFactor" : 0,
                "roughnessFactor" : 0.7227272987365723
            }
        },
        {
            "alphaMode" : "BLEND",
            "emissiveFactor" : [
                0.1247718334197998,
                1,
                1
            ],
            "name" : "Material.022",
            "pbrMetallicRoughness" : {
                "baseColorFactor" : [
                    0.12743766605854034,
                    1,
                    1,
                    1
                ],
                "metallicFactor" : 0,
                "roughnessFactor" : 1
            }
        }
    ],
    "meshes" : [
        {
            "name" : "Plane.019",
            "primitives" : [
                {
                    "attributes" : {
                        "POSITION" : 0,
                        "NORMAL" : 1,
                        "TEXCOORD_0" : 2
                    },
                    "indices" : 3,
                    "material" : 0
                }
            ]
        },
        {
            "name" : "Plane.021",
            "primitives" : [
                {
                    "attributes" : {
                        "POSITION" : 4,
                        "NORMAL" : 5,
                        "TEXCOORD_0" : 6
                    },
                    "indices" : 7,
                    "material" : 1
                }
            ]
        }
    ],
    "textures" : [
        {
            "source" : 0
        }
    ],
    "images" : [
        {
            "bufferView" : 4,
            "mimeType" : "image/png",
            "name" : "Genesis_TX"
        }
    ],
    "accessors" : [
        {
            "bufferView" : 0,
            "componentType" : 5126,
            "count" : 104,
            "max" : [
                1,
                0.19539205729961395,
                -0.1003645658493042
            ],
            "min" : [
                -1,
                -0.1953922063112259,
                -2.729254722595215
            ],
            "type" : "VEC3"
        },
        {
            "bufferView" : 1,
            "componentType" : 5126,
            "count" : 104,
            "type" : "VEC3"
        },
        {
            "bufferView" : 2,
            "componentType" : 5126,
            "count" : 104,
            "type" : "VEC2"
        },
        {
            "bufferView" : 3,
            "componentType" : 5123,
            "count" : 192,
            "type" : "SCALAR"
        },
        {
            "bufferView" : 5,
            "componentType" : 5126,
            "count" : 114,
            "max" : [
                0.992645800113678,
                0.2582820653915405,
                0.014990784227848053
            ],
            "min" : [
                -1,
                -0.255208283662796,
                -2.5743627548217773
            ],
            "type" : "VEC3"
        },
        {
            "bufferView" : 6,
            "componentType" : 5126,
            "count" : 114,
            "type" : "VEC3"
        },
        {
            "bufferView" : 7,
            "componentType" : 5126,
            "count" : 114,
            "type" : "VEC2"
        },
        {
            "bufferView" : 8,
            "componentType" : 5123,
            "count" : 192,
            "type" : "SCALAR"
        }
    ],
    "bufferViews" : [
        {
            "buffer" : 0,
            "byteLength" : 1248,
            "byteOffset" : 0
        },
        {
            "buffer" : 0,
            "byteLength" : 1248,
            "byteOffset" : 1248
        },
        {
            "buffer" : 0,
            "byteLength" : 832,
            "byteOffset" : 2496
        },
        {
            "buffer" : 0,
            "byteLength" : 384,
            "byteOffset" : 3328
        },
        {
            "buffer" : 0,
            "byteLength" : 19841,
            "byteOffset" : 3712
        },
        {
            "buffer" : 0,
            "byteLength" : 1368,
            "byteOffset" : 23556
        },
        {
            "buffer" : 0,
            "byteLength" : 1368,
            "byteOffset" : 24924
        },
        {
            "buffer" : 0,
            "byteLength" : 912,
            "byteOffset" : 26292
        },
        {
            "buffer" : 0,
            "byteLength" : 384,
            "byteOffset" : 27204
        }
    ],
    "buffers" : [
        {
            "byteLength" : 27588,
            "uri" : "data:application/octet-stream;base64,"
        }
    ]
}
