{
    "asset" : {
        "generator" : "Khronos glTF Blender I/O v1.1.46",
        "version" : "2.0"
    },
    "scene" : 0,
    "scenes" : [
        {
            "name" : "Scene",
            "nodes" : [
                0,
                1
            ]
        }
    ],
    "nodes" : [
        {
            "mesh" : 0,
            "name" : "Circle.012"
        },
        {
            "mesh" : 1,
            "name" : "scene_collider.025"
        }
    ],
    "materials" : [
        {
            "doubleSided" : true,
            "emissiveFactor" : [
                0,
                0,
                0
            ],
            "name" : "Material.030",
            "pbrMetallicRoughness" : {
                "baseColorTexture" : {
                    "index" : 0,
                    "texCoord" : 0
                },
                "metallicFactor" : 0,
                "roughnessFactor" : 0.7227272987365723
            }
        },
        {
            "alphaMode" : "BLEND",
            "doubleSided" : true,
            "emissiveFactor" : [
                0.847058892250061,
                0.1764705926179886,
                0.11372549831867218
            ],
            "name" : "Material.020",
            "pbrMetallicRoughness" : {
                "baseColorFactor" : [
                    0.8468737006187439,
                    0.17788833379745483,
                    0.11443543434143066,
                    0.5
                ],
                "metallicFactor" : 0,
                "roughnessFactor" : 0.7848484516143799
            }
        }
    ],
    "meshes" : [
        {
            "name" : "Circle.014",
            "primitives" : [
                {
                    "attributes" : {
                        "POSITION" : 0,
                        "NORMAL" : 1,
                        "TEXCOORD_0" : 2
                    },
                    "indices" : 3,
                    "material" : 0
                },
                {
                    "attributes" : {
                        "POSITION" : 4,
                        "NORMAL" : 5,
                        "TEXCOORD_0" : 6
                    },
                    "indices" : 7,
                    "material" : 1
                }
            ]
        },
        {
            "name" : "Plane.051",
            "primitives" : [
                {
                    "attributes" : {
                        "POSITION" : 8,
                        "NORMAL" : 9,
                        "TEXCOORD_0" : 10
                    },
                    "indices" : 11
                }
            ]
        }
    ],
    "textures" : [
        {
            "source" : 0
        }
    ],
    "images" : [
        {
            "bufferView" : 4,
            "mimeType" : "image/png",
            "name" : "Genesis_TX"
        }
    ],
    "accessors" : [
        {
            "bufferView" : 0,
            "componentType" : 5126,
            "count" : 640,
            "max" : [
                3.6818552017211914,
                2.655531644821167,
                3.093728542327881
            ],
            "min" : [
                -3.9042582511901855,
                -0.29427993297576904,
                -3.020369052886963
            ],
            "type" : "VEC3"
        },
        {
            "bufferView" : 1,
            "componentType" : 5126,
            "count" : 640,
            "type" : "VEC3"
        },
        {
            "bufferView" : 2,
            "componentType" : 5126,
            "count" : 640,
            "type" : "VEC2"
        },
        {
            "bufferView" : 3,
            "componentType" : 5123,
            "count" : 1122,
            "type" : "SCALAR"
        },
        {
            "bufferView" : 5,
            "componentType" : 5126,
            "count" : 20,
            "max" : [
                1.9497835636138916,
                0.9424510598182678,
                1.949783205986023
            ],
            "min" : [
                -1.9497835636138916,
                0.9424510598182678,
                -1.949783444404602
            ],
            "type" : "VEC3"
        },
        {
            "bufferView" : 6,
            "componentType" : 5126,
            "count" : 20,
            "type" : "VEC3"
        },
        {
            "bufferView" : 7,
            "componentType" : 5126,
            "count" : 20,
            "type" : "VEC2"
        },
        {
            "bufferView" : 8,
            "componentType" : 5123,
            "count" : 48,
            "type" : "SCALAR"
        },
        {
            "bufferView" : 9,
            "componentType" : 5126,
            "count" : 120,
            "max" : [
                3.7673966884613037,
                2.691014528274536,
                3.2161035537719727
            ],
            "min" : [
                -4.0901570320129395,
                -0.40405184030532837,
                -3.2786240577697754
            ],
            "type" : "VEC3"
        },
        {
            "bufferView" : 10,
            "componentType" : 5126,
            "count" : 120,
            "type" : "VEC3"
        },
        {
            "bufferView" : 11,
            "componentType" : 5126,
            "count" : 120,
            "type" : "VEC2"
        },
        {
            "bufferView" : 12,
            "componentType" : 5123,
            "count" : 186,
            "type" : "SCALAR"
        }
    ],
    "bufferViews" : [
        {
            "buffer" : 0,
            "byteLength" : 7680,
            "byteOffset" : 0
        },
        {
            "buffer" : 0,
            "byteLength" : 7680,
            "byteOffset" : 7680
        },
        {
            "buffer" : 0,
            "byteLength" : 5120,
            "byteOffset" : 15360
        },
        {
            "buffer" : 0,
            "byteLength" : 2244,
            "byteOffset" : 20480
        },
        {
            "buffer" : 0,
            "byteLength" : 19841,
            "byteOffset" : 22724
        },
        {
            "buffer" : 0,
            "byteLength" : 240,
            "byteOffset" : 42568
        },
        {
            "buffer" : 0,
            "byteLength" : 240,
            "byteOffset" : 42808
        },
        {
            "buffer" : 0,
            "byteLength" : 160,
            "byteOffset" : 43048
        },
        {
            "buffer" : 0,
            "byteLength" : 96,
            "byteOffset" : 43208
        },
        {
            "buffer" : 0,
            "byteLength" : 1440,
            "byteOffset" : 43304
        },
        {
            "buffer" : 0,
            "byteLength" : 1440,
            "byteOffset" : 44744
        },
        {
            "buffer" : 0,
            "byteLength" : 960,
            "byteOffset" : 46184
        },
        {
            "buffer" : 0,
            "byteLength" : 372,
            "byteOffset" : 47144
        }
    ],
    "buffers" : [
        {
            "byteLength" : 47516,
            "uri" : "data:application/octet-stream;base64,"
        }
    ]
}
