{
    "asset" : {
        "generator" : "Khronos glTF Blender I/O v1.1.46",
        "version" : "2.0"
    },
    "scene" : 0,
    "scenes" : [
        {
            "name" : "Scene",
            "nodes" : [
                0,
                1
            ]
        }
    ],
    "nodes" : [
        {
            "mesh" : 0,
            "name" : "Circle.017"
        },
        {
            "mesh" : 1,
            "name" : "scene_collider"
        }
    ],
    "materials" : [
        {
            "doubleSided" : true,
            "emissiveFactor" : [
                0,
                0,
                0
            ],
            "name" : "Material.030",
            "pbrMetallicRoughness" : {
                "baseColorTexture" : {
                    "index" : 0,
                    "texCoord" : 0
                },
                "metallicFactor" : 0,
                "roughnessFactor" : 0.7227272987365723
            }
        },
        {
            "alphaMode" : "BLEND",
            "doubleSided" : true,
            "emissiveFactor" : [
                0.035079434514045715,
                0.3828462064266205,
                0.39646244049072266
            ],
            "name" : "Material.021",
            "pbrMetallicRoughness" : {
                "baseColorFactor" : [
                    0.03529411926865578,
                    0.3843137323856354,
                    0.3960784375667572,
                    0.5
                ],
                "metallicFactor" : 0,
                "roughnessFactor" : 0.4939393997192383
            }
        }
    ],
    "meshes" : [
        {
            "name" : "Circle.021",
            "primitives" : [
                {
                    "attributes" : {
                        "POSITION" : 0,
                        "NORMAL" : 1,
                        "TEXCOORD_0" : 2
                    },
                    "indices" : 3,
                    "material" : 0
                },
                {
                    "attributes" : {
                        "POSITION" : 4,
                        "NORMAL" : 5,
                        "TEXCOORD_0" : 6
                    },
                    "indices" : 7,
                    "material" : 1
                }
            ]
        },
        {
            "name" : "Plane.094",
            "primitives" : [
                {
                    "attributes" : {
                        "POSITION" : 8,
                        "NORMAL" : 9,
                        "TEXCOORD_0" : 10
                    },
                    "indices" : 11
                }
            ]
        }
    ],
    "textures" : [
        {
            "source" : 0
        }
    ],
    "images" : [
        {
            "bufferView" : 4,
            "mimeType" : "image/png",
            "name" : "Genesis_TX"
        }
    ],
    "accessors" : [
        {
            "bufferView" : 0,
            "componentType" : 5126,
            "count" : 640,
            "max" : [
                4.235652446746826,
                2.852896213531494,
                3.3433258533477783
            ],
            "min" : [
                -4.009982109069824,
                -0.4548336863517761,
                -3.0519778728485107
            ],
            "type" : "VEC3"
        },
        {
            "bufferView" : 1,
            "componentType" : 5126,
            "count" : 640,
            "type" : "VEC3"
        },
        {
            "bufferView" : 2,
            "componentType" : 5126,
            "count" : 640,
            "type" : "VEC2"
        },
        {
            "bufferView" : 3,
            "componentType" : 5123,
            "count" : 1122,
            "type" : "SCALAR"
        },
        {
            "bufferView" : 5,
            "componentType" : 5126,
            "count" : 22,
            "max" : [
                1.9497835636138916,
                0.9424510598182678,
                1.949783444404602
            ],
            "min" : [
                -1.9497835636138916,
                0.9424510598182678,
                -1.9497833251953125
            ],
            "type" : "VEC3"
        },
        {
            "bufferView" : 6,
            "componentType" : 5126,
            "count" : 22,
            "type" : "VEC3"
        },
        {
            "bufferView" : 7,
            "componentType" : 5126,
            "count" : 22,
            "type" : "VEC2"
        },
        {
            "bufferView" : 8,
            "componentType" : 5123,
            "count" : 48,
            "type" : "SCALAR"
        },
        {
            "bufferView" : 9,
            "componentType" : 5126,
            "count" : 120,
            "max" : [
                4.380442142486572,
                2.848137140274048,
                3.547121047973633
            ],
            "min" : [
                -4.042530059814453,
                -0.6191760301589966,
                -3.1759560108184814
            ],
            "type" : "VEC3"
        },
        {
            "bufferView" : 10,
            "componentType" : 5126,
            "count" : 120,
            "type" : "VEC3"
        },
        {
            "bufferView" : 11,
            "componentType" : 5126,
            "count" : 120,
            "type" : "VEC2"
        },
        {
            "bufferView" : 12,
            "componentType" : 5123,
            "count" : 186,
            "type" : "SCALAR"
        }
    ],
    "bufferViews" : [
        {
            "buffer" : 0,
            "byteLength" : 7680,
            "byteOffset" : 0
        },
        {
            "buffer" : 0,
            "byteLength" : 7680,
            "byteOffset" : 7680
        },
        {
            "buffer" : 0,
            "byteLength" : 5120,
            "byteOffset" : 15360
        },
        {
            "buffer" : 0,
            "byteLength" : 2244,
            "byteOffset" : 20480
        },
        {
            "buffer" : 0,
            "byteLength" : 19841,
            "byteOffset" : 22724
        },
        {
            "buffer" : 0,
            "byteLength" : 264,
            "byteOffset" : 42568
        },
        {
            "buffer" : 0,
            "byteLength" : 264,
            "byteOffset" : 42832
        },
        {
            "buffer" : 0,
            "byteLength" : 176,
            "byteOffset" : 43096
        },
        {
            "buffer" : 0,
            "byteLength" : 96,
            "byteOffset" : 43272
        },
        {
            "buffer" : 0,
            "byteLength" : 1440,
            "byteOffset" : 43368
        },
        {
            "buffer" : 0,
            "byteLength" : 1440,
            "byteOffset" : 44808
        },
        {
            "buffer" : 0,
            "byteLength" : 960,
            "byteOffset" : 46248
        },
        {
            "buffer" : 0,
            "byteLength" : 372,
            "byteOffset" : 47208
        }
    ],
    "buffers" : [
        {
            "byteLength" : 47580,
            "uri" : "data:application/octet-stream;base64,"
        }
    ]
}
