{
    "asset" : {
        "generator" : "Khronos glTF Blender I/O v1.1.46",
        "version" : "2.0"
    },
    "scene" : 0,
    "scenes" : [
        {
            "name" : "Scene",
            "nodes" : [
                0
            ]
        }
    ],
    "nodes" : [
        {
            "mesh" : 0,
            "name" : "Circle.013",
            "rotation" : [
                0,
                0.6562305092811584,
                0,
                0.7545604705810547
            ],
            "scale" : [
                2.300530433654785,
                2.300530433654785,
                2.300530433654785
            ],
            "translation" : [
                0,
                0.3024477958679199,
                0
            ]
        }
    ],
    "materials" : [
        {
            "alphaMode" : "BLEND",
            "doubleSided" : true,
            "emissiveFactor" : [
                0.035079434514045715,
                0.3828462064266205,
                0.39646244049072266
            ],
            "name" : "Material.021",
            "pbrMetallicRoughness" : {
                "baseColorFactor" : [
                    0.03529411926865578,
                    0.3843137323856354,
                    0.3960784375667572,
                    0.5
                ],
                "metallicFactor" : 0,
                "roughnessFactor" : 0.4939393997192383
            }
        }
    ],
    "meshes" : [
        {
            "name" : "Circle.015",
            "primitives" : [
                {
                    "attributes" : {
                        "POSITION" : 0,
                        "NORMAL" : 1,
                        "TEXCOORD_0" : 2
                    },
                    "indices" : 3,
                    "material" : 0
                }
            ]
        }
    ],
    "accessors" : [
        {
            "bufferView" : 0,
            "componentType" : 5126,
            "count" : 158,
            "max" : [
                1,
                0.8364682197570801,
                1
            ],
            "min" : [
                -1,
                0.2781975567340851,
                -1
            ],
            "type" : "VEC3"
        },
        {
            "bufferView" : 1,
            "componentType" : 5126,
            "count" : 158,
            "type" : "VEC3"
        },
        {
            "bufferView" : 2,
            "componentType" : 5126,
            "count" : 158,
            "type" : "VEC2"
        },
        {
            "bufferView" : 3,
            "componentType" : 5123,
            "count" : 240,
            "type" : "SCALAR"
        }
    ],
    "bufferViews" : [
        {
            "buffer" : 0,
            "byteLength" : 1896,
            "byteOffset" : 0
        },
        {
            "buffer" : 0,
            "byteLength" : 1896,
            "byteOffset" : 1896
        },
        {
            "buffer" : 0,
            "byteLength" : 1264,
            "byteOffset" : 3792
        },
        {
            "buffer" : 0,
            "byteLength" : 480,
            "byteOffset" : 5056
        }
    ],
    "buffers" : [
        {
            "byteLength" : 5536,
            "uri" : "data:application/octet-stream;base64,"
        }
    ]
}
